<?xml version="1.0" encoding="utf-8"?>
<!-- Generator: Adobe Illustrator 13.0.0, SVG Export Plug-In . SVG Version: 6.00 Build 14948)  -->
<!DOCTYPE svg PUBLIC "-//W3C//DTD SVG 1.1//EN" "http://www.w3.org/Graphics/SVG/1.1/DTD/svg11.dtd">
<svg version="1.1" xmlns="http://www.w3.org/2000/svg" xmlns:xlink="http://www.w3.org/1999/xlink" x="0px" y="0px" width="500px"
	 height="500px" viewBox="0 0 500 500" enable-background="new 0 0 500 500" xml:space="preserve">
<g id="Layer_7">
	<path d="M106.993,155.667c0,0-36.074-4.26-34.047-37.316c2.027-33.057,16.965-99.993,66.524-100.707
		c49.56-0.713,35.01,13.278,39.222,25.266c4.213,11.986-9.204,81.917-9.204,81.917L106.993,155.667z"/>
</g>
<g id="Layer_2">
	
		<radialGradient id="SVGID_1_" cx="199.8643" cy="242.8301" r="194.043" gradientTransform="matrix(0.8914 -0.4533 0.4533 0.8914 -63.114 145.6855)" gradientUnits="userSpaceOnUse">
		<stop  offset="0.24" style="stop-color:#FFFFFF"/>
		<stop  offset="0.4514" style="stop-color:#FCFCFC"/>
		<stop  offset="0.5875" style="stop-color:#F4F4F4"/>
		<stop  offset="0.7022" style="stop-color:#E5E5E5"/>
		<stop  offset="0.8051" style="stop-color:#D0D0D0"/>
		<stop  offset="0.9002" style="stop-color:#B5B5B5"/>
		<stop  offset="0.9883" style="stop-color:#949494"/>
		<stop  offset="1" style="stop-color:#8F8F8F"/>
	</radialGradient>
	<path fill="url(#SVGID_1_)" d="M226.253,75.5c35.364-1.637,88.89-2.002,131.505,35.876
		c42.617,37.878,75.113,161.472,53.652,222.596c-21.462,61.122-87.755,100.673-114.657,114.354
		c-26.905,13.684-70.18,15.841-103.783,2.57c-33.605-13.271-76.518-26.476-94.304-40.783c-17.786-14.309-53.292-33.616-57.76-74.547
		c-4.469-40.932,7.746-92.682,16.944-109.037c9.198-16.354,37.346-45.673,42.816-62.467c5.47-16.793,19.714-51.067,39.652-62.375
		C160.257,90.38,190.887,77.138,226.253,75.5z"/>
</g>
<g id="Layer_3">
	<path opacity="0.33" d="M154.776,417.705c0,0-1.542,26.578,0.075,38.581c2.374,17.63,31.204,26.399,31.204,26.399l11.919-7.356
		l15.431,5.339l11.954-8.904l13.586,3.098c0,0,26.555-8.441,28.869-27.045c2.314-18.599-6.64-37.593-6.64-37.593L154.776,417.705z"
		/>
	
		<radialGradient id="SVGID_2_" cx="107.2461" cy="384.2783" r="52.0301" gradientTransform="matrix(0.8914 -0.4533 0.4533 0.8914 -63.114 145.6855)" gradientUnits="userSpaceOnUse">
		<stop  offset="0" style="stop-color:#FFFFFF"/>
		<stop  offset="1" style="stop-color:#E6E6E6"/>
	</radialGradient>
	<path fill="url(#SVGID_2_)" d="M150.776,417.705c0,0-1.542,26.578,0.075,38.581c2.374,17.63,31.204,26.399,31.204,26.399
		l11.919-7.356l15.431,5.339l11.954-8.904l13.586,3.098c0,0,26.555-8.441,28.869-27.045c2.314-18.599-6.64-37.593-6.64-37.593
		L150.776,417.705z"/>
</g>
<g id="Layer_5">
	<path d="M139.908,332.963c0,0-32.363,7.963-43.118-8.416c-10.756-16.376-21.04-34.208-6.167-52.692
		c14.874-18.489,26.511-14.696,32.722-26.352c6.21-11.655,15.197-41.715,31.201-36.501c16.003,5.212,34.555,29.762,34.555,29.762
		l-15.849,88.168L139.908,332.963z"/>
	<path d="M264.375,333.632c0,0,45.178,10.174,55.121-1.742c9.939-11.913,25.764-30.245,16.528-48.408
		c-9.239-18.164-16.057-15.84-22.983-29.459c-6.929-13.623-18.14-53.644-36.345-51.241c-18.21,2.402-38.449,41.269-38.387,50.38
		C238.372,262.274,264.375,333.632,264.375,333.632z"/>
</g>
<g id="Layer_4">
	<path opacity="0.33" fill="#101010" d="M171.832,206.5l-5.873,63.71c0,0-14.812,16.716-20.623,31.679
		c-5.813,14.968-12.669,41.768-16.236,55.591c-4.434,17.182,2.809,40.251,8.232,50.912c5.423,10.666,17.296,17.345,25.458,16.724
		c8.163-0.616,25.334-1.579,30.405-1.333c5.07,0.249,24.279,8.848,36.656,6.791c12.376-2.056,27.038,0.381,36.245-12.074
		c9.207-12.453,24.58-29.454,25.873-46.36c1.293-16.905-7.604-41.345-12.742-51.447c-5.137-10.104-20.293-44.076-22.586-49.974
		c-2.294-5.898-6.489-36.025-6.809-42.219c-0.326-6.193-1-18-1-18L171.832,206.5z"/>
	
		<linearGradient id="SVGID_3_" gradientUnits="userSpaceOnUse" x1="189.9326" y1="226.8638" x2="116.0497" y2="362.0358" gradientTransform="matrix(0.8914 -0.4533 0.4533 0.8914 -63.114 145.6855)">
		<stop  offset="0" style="stop-color:#FFFFFF"/>
		<stop  offset="1" style="stop-color:#E6E6E6"/>
	</linearGradient>
	<path fill="url(#SVGID_3_)" d="M167.833,203.833l-5.873,63.71c0,0-14.812,16.716-20.623,31.679
		c-5.813,14.968-12.669,41.768-16.236,55.591c-4.434,17.182,2.809,40.251,8.232,50.912c5.423,10.666,17.296,17.345,25.458,16.724
		c8.163-0.616,25.334-1.579,30.405-1.333c5.07,0.249,24.279,8.848,36.656,6.791c12.376-2.056,27.037,0.381,36.244-12.074
		c9.209-12.453,24.58-29.454,25.875-46.36c1.291-16.905-7.605-41.345-12.742-51.447c-5.139-10.104-20.295-44.076-22.588-49.974
		c-2.293-5.898,1.424-38.871,1.102-45.064c-0.326-6.193-1.818-18.856-1.818-18.856L167.833,203.833z"/>
</g>
<g id="Layer_6">
	<path d="M188.84,374.95c15.4,0.647,47.504-1.241,46.23,6.631c-5.225,32.326-37.799,18.281-39.613,27.684
		c-1.813,9.398-4.046,12.416-8.548,12.82c-4.502,0.407-7.205-10.462-9.856-13.823c-2.652-3.362-19.966-9.626-23.759-15.232
		c-3.793-5.605-7.292-12.82-3.49-16.123C155.03,372.366,174.354,374.344,188.84,374.95z"/>
</g>
<g id="Layer_8">
	<path d="M398.814,166.443c0,0,47.68-0.701,54.631-27.784c6.949-27.081,8.698-45.868-16.343-83.996
		c-25.042-38.127-62.563-34.118-81.626-21.596c-19.065,12.521-33.803,53.924-26.953,67.395
		C335.376,113.933,398.814,166.443,398.814,166.443z"/>
</g>
<g id="Layer_10">
	
		<radialGradient id="SVGID_4_" cx="129.1045" cy="193.1826" r="19.4589" gradientTransform="matrix(0.8914 -0.4533 0.4533 0.8914 -63.114 145.6855)" gradientUnits="userSpaceOnUse">
		<stop  offset="0" style="stop-color:#380A0B"/>
		<stop  offset="0.3445" style="stop-color:#1B0505"/>
		<stop  offset="0.6637" style="stop-color:#070101"/>
		<stop  offset="0.88" style="stop-color:#000000"/>
	</radialGradient>
	<path fill="url(#SVGID_4_)" stroke="#4D4D4D" stroke-width="2" d="M157.251,250.348c4.764,9.367,0.698,20.994-9.089,25.972
		c-9.785,4.977-21.583,1.418-26.345-7.949c-4.766-9.374-0.694-21.003,9.091-25.978C140.694,237.415,152.486,240.977,157.251,250.348
		z"/>
	<g>
		<path fill="#FFFFFF" d="M142.497,245.477c0.119-0.059,0.239-0.112,0.357-0.171c-3.334-0.773-6.951-0.429-10.242,1.245
			c-7.418,3.774-10.376,12.847-6.603,20.266c1.009,1.986,2.398,3.646,4.032,4.949C127.771,261.438,132.636,250.491,142.497,245.477z
			"/>
	</g>
</g>
<g id="Layer_10_copy">
	
		<radialGradient id="SVGID_5_" cx="251.5176" cy="255.4355" r="19.4587" gradientTransform="matrix(0.8914 -0.4533 0.4533 0.8914 -63.114 145.6855)" gradientUnits="userSpaceOnUse">
		<stop  offset="0" style="stop-color:#380A0B"/>
		<stop  offset="0.3445" style="stop-color:#1B0505"/>
		<stop  offset="0.6637" style="stop-color:#070101"/>
		<stop  offset="0.88" style="stop-color:#000000"/>
	</radialGradient>
	<path fill="url(#SVGID_5_)" stroke="#4D4D4D" stroke-width="2" d="M294.584,250.348c4.764,9.367,0.698,20.994-9.088,25.972
		c-9.785,4.977-21.583,1.418-26.346-7.949c-4.766-9.374-0.694-21.004,9.092-25.978C278.027,237.415,289.819,240.977,294.584,250.348
		z"/>
	<g>
		<path fill="#FFFFFF" d="M279.83,245.477c0.119-0.059,0.238-0.112,0.357-0.171c-3.334-0.773-6.951-0.429-10.242,1.245
			c-7.418,3.774-10.377,12.847-6.604,20.266c1.01,1.986,2.398,3.646,4.032,4.949C265.104,261.438,269.969,250.491,279.83,245.477z"
			/>
	</g>
</g>
<g id="Layer_13">
</g>
<g id="Layer_11">
	<path fill="none" stroke="#000000" stroke-width="3" stroke-linecap="round" d="M151.5,440.167c0,0,11.384-17.166,35.409-18.082
		c24.024-0.912,74.588,35.539,74.588,35.539"/>
</g>
<g id="Layer_14">
	<path opacity="0.68" fill="#4AA8FF" d="M260.829,270.87c0,0-2.324-6.415,0.765-6.278c3.089,0.138,4.717,3.124,7.564,4.586
		c2.849,1.462,5.842,2.384,9.567,1.882c3.725-0.502,8.034-1.888,9.994-2.286s4.605-1.191,5.589-0.115
		c0.984,1.075-1.988,6.158-4.221,6.03c-2.232-0.127-10.944,4.705-13.984,4.813C273.064,279.608,260.829,270.87,260.829,270.87z"/>
	<path opacity="0.68" fill="#4AA8FF" d="M131.196,276.862c-4.274-3.109-10.164-9.615-10.164-9.615s-1.028-6.745,1.975-6.008
		s4.017,3.983,6.525,5.973c2.509,1.989,5.265,3.478,9.017,3.712c3.751,0.234,8.248-0.284,10.248-0.293s4.75-0.271,5.504,0.977
		c0.756,1.247-3.151,5.652-5.316,5.092c-1.514-0.392-6.582,1.143-10.561,1.668c-5.424,0.717,1.869,18.367-9.09,15.967
		C117.917,291.834,134.25,279.084,131.196,276.862z"/>
</g>
</svg>
