<?xml version="1.0" encoding="UTF-8" standalone="no"?>
<svg
   xmlns:dc="http://purl.org/dc/elements/1.1/"
   xmlns:cc="http://creativecommons.org/ns#"
   xmlns:rdf="http://www.w3.org/1999/02/22-rdf-syntax-ns#"
   xmlns:svg="http://www.w3.org/2000/svg"
   xmlns="http://www.w3.org/2000/svg"
   xmlns:sodipodi="http://sodipodi.sourceforge.net/DTD/sodipodi-0.dtd"
   xmlns:inkscape="http://www.inkscape.org/namespaces/inkscape"
   id="body_1"
   width="229.8703"
   height="229.8703"
   version="1.1"
   inkscape:version="0.91 r13725"
   sodipodi:docname="thumbdown.svg">
  <metadata
     id="metadata24">
    <rdf:RDF>
      <cc:Work
         rdf:about="">
        <dc:format>image/svg+xml</dc:format>
        <dc:type
           rdf:resource="http://purl.org/dc/dcmitype/StillImage" />
        <dc:title></dc:title>
      </cc:Work>
    </rdf:RDF>
  </metadata>
  <sodipodi:namedview
     pagecolor="#ffffff"
     bordercolor="#666666"
     borderopacity="1"
     objecttolerance="10"
     gridtolerance="10"
     guidetolerance="10"
     inkscape:pageopacity="0"
     inkscape:pageshadow="2"
     inkscape:window-width="1855"
     inkscape:window-height="1176"
     id="namedview22"
     showgrid="false"
     fit-margin-top="0"
     fit-margin-left="0"
     fit-margin-right="0"
     fit-margin-bottom="0"
     inkscape:zoom="0.77377049"
     inkscape:cx="152.5"
     inkscape:cy="76.5"
     inkscape:window-x="65"
     inkscape:window-y="24"
     inkscape:window-maximized="1"
     inkscape:current-layer="body_1" />
  <g
     id="g3"
     transform="translate(0,0.8703)">
    <g
       clip-path="url(#1)"
       id="g5">
      <path
         transform="matrix(1,0,0,-1,0,229)"
         d="m 224.6571,114.9352 c 0,60.5977 -49.1242,109.7219 -109.7219,109.7219 -60.59778,0 -109.721946,-49.1242 -109.721946,-109.7219 0,-60.59778 49.124166,-109.721946 109.721946,-109.721946 60.5977,0 109.7219,49.124166 109.7219,109.721946 z"
         id="path7"
         inkscape:connector-curvature="0"
         style="fill:#ad081c;fill-rule:evenodd;stroke:none" />
      <path
         transform="matrix(1,0,0,-1,0,229)"
         d="m 224.1285,114.9352 c 0,60.3058 -48.8875,109.1933 -109.1933,109.1933 C 54.62932,224.1285 5.741788,175.241 5.741788,114.9352 5.741788,54.62932 54.62932,5.741788 114.9352,5.741788 c 60.3058,0 109.1933,48.887532 109.1933,109.193412 z m 5.7418,0 c 0,63.4769 -51.4582,114.9351 -114.9351,114.9351 C 51.45822,229.8703 0,178.4121 0,114.9352 0,51.45822 51.45822,0 114.9352,0 178.4121,0 229.8703,51.45822 229.8703,114.9352 Z"
         id="path9"
         inkscape:connector-curvature="0"
         style="fill:#ff0000;fill-rule:evenodd;stroke:none" />
      <path
         transform="matrix(1,0,0,-1,0,229)"
         d="m 150.2502,177.526 c 2.1894,2.827 5.563,4.4825 9.1386,4.4846 l 0,0 16.8215,0 c 6.3876,3e-4 11.5654,-5.1784 11.564,-11.566 l 0,0 0,-53.2377 c 0.002,-6.388 -5.1763,-11.5674 -11.5643,-11.5663 l 0,0 -16.8202,0 c -2.7669,10e-4 -5.4418,0.9941 -7.5391,2.7988 l 0,0 -6.233,0 c -0.7201,-0.0471 -2.7269,-2.097 -3.2839,-2.7535 -4.8439,-5.70912 -9.8992,-16.80194 -12.864,-24.53098 -1.9788,-5.15868 -5.8748,-8.68149 -10.216,-11.85813 -1.5686,-1.16986 -2.9035,-2.62405 -3.935,-4.28689 -3.4794,-5.78744 -4.9099,-17.29752 -5.2627,-24.67537 -0.2332,-4.87733 -4.6533,-7.56581 -9.3469,-7.55301 -6.18989,0.01689 -13.21568,3.53124 -16.89685,8.8162 -2.99726,4.45275 -4.63447,9.68125 -4.71208,15.04823 -0.25898,5.38144 0.63461,10.75611 2.62097,15.76424 l 0,0 5.79429,11.97512 c 0.61249,1.33091 1.1461,2.69673 1.59804,4.09036 -8.20333,-0.16958 -16.41006,-0.05908 -24.60584,0.33129 -2.50364,0.11816 -6.87272,0.69423 -9.18596,1.53809 -2.06474,0.93857 -3.93241,2.26079 -5.5037,3.89637 l 0,0 0.10642,-0.1109 c -3.6797,3.72456 -8.0902,10.47018 -7.8163,16.17628 0.15607,3.2512 2.44036,5.831 4.23794,8.3161 l 0,0 -2.42863,4.1137 c -1.00575,1.7091 -1.62162,3.6191 -1.80362,5.5937 -0.28282,4.3391 3.27747,7.5941 5.7601,10.6027 l 0,0 -1.65909,4.27 c -0.61197,1.5312 -1.09992,3.4358 -1.11741,5.0836 0.11662,2.5869 1.04789,5.0708 2.66076,7.0967 l 0,0 -0.1083,-0.1358 c 1.02523,1.3293 2.1596,2.5707 3.3913,3.7113 0.77174,0.6851 1.48793,1.4303 2.14182,2.2286 l 0,0 -0.06106,3.5494 c -0.04458,1.5638 0.1777,3.4833 0.78224,4.9222 1.91382,4.555 9.08973,11.3612 14.95401,13.3283 4.77475,1.6016 13.42194,1.7596 18.47604,1.8292 10.76788,-0.0761 21.52781,-0.6052 32.25121,-1.5858 l 0,0 30.6647,-5.7047 z"
         id="path11"
         inkscape:connector-curvature="0"
         style="fill:#000000;fill-rule:evenodd;stroke:none" />
      <path
         transform="matrix(1,0,0,-1,0,229)"
         d="m 52.741,117.9589 c -0.30269,-2.2934 -4.53051,-5.692 -4.66284,-8.0023 -0.24779,-4.2067 5.43293,-12.42858 9.33272,-14.00679 4.54576,-1.83917 22.69907,-1.69912 32.05216,-1.49385 1.11361,0.02445 8.28221,-1.37612 5.52945,-7.17138 -1.7776,-5.97735 -6.15144,-13.22387 -7.73071,-17.07191 -3.45911,-8.40353 -2.87626,-19.56225 1.49516,-25.28662 5.34001,-7.0013 15.14016,-7.46871 15.34426,-4.3334 1.4572,22.71727 5.8075,29.02027 11.6304,33.51276 3.4985,2.69465 6.5564,5.05986 8.167,9.168 9.9268,25.27539 17.2801,31.12639 21.4868,31.12639 0,0 0.4467,0 0.9832,0 0.8064,0 2.0636,1.7017 2.399,4.5809 1.178,10.1125 3.4343,34.7509 -0.1881,51.1986 -0.1247,0.5661 -1.0098,1.7827 -4.6469,2.4593 -3.6372,0.6767 -25.1643,4.6814 -25.1643,4.6814 0,0 -36.52273,3.4591 -48.02215,0 -3.61821,-1.084 -9.86066,-6.517 -11.33892,-10.0042 -0.8419,-2.0006 0.32944,-6.7423 -0.66592,-8.6725 -1.47403,-2.865 -7.67708,-6.4508 -7.67144,-10.3393 0.0056,-2.7707 3.23948,-7.5715 3.00296,-10.3379 -0.23652,-2.7665 -6.01157,-6.5663 -6.00594,-9.3384 0.0169,-2.9086 5.05986,-7.7813 4.67411,-10.6688 z"
         id="path13"
         inkscape:connector-curvature="0"
         style="fill:#ffffff;fill-rule:evenodd;stroke:none" />
      <path
         transform="matrix(1,0,0,-1,0,229)"
         d="m 153.8112,170.948 c 0.2544,2.8603 2.6598,5.1021 5.581,5.1021 l 0,0 16.8183,0 c 3.0959,0 5.6033,-2.5088 5.6033,-5.6047 l 0,0 0,-53.2397 c 0,-3.0973 -2.5074,-5.6047 -5.6033,-5.6047 l 0,0 -16.8183,0 c -3.0902,0 -5.6033,2.5074 -5.6033,5.6047 0,0 0,3e-4 0,0.13 0,0.1296 4.3378,28.1355 0.0223,53.6123 z"
         id="path15"
         inkscape:connector-curvature="0"
         style="fill:#ffffff;fill-rule:evenodd;stroke:none" />
    </g>
  </g>
  <defs
     id="defs17">
    <clipPath
       id="1">
      <path
         d="m 0,229 0,-229.8703156 0,0 229.8703,0 0,0 0,229.8703156 0,0 L 0,229 Z"
         id="path20"
         inkscape:connector-curvature="0" />
    </clipPath>
  </defs>
</svg>
