<svg width="112" height="71" viewBox="0 0 112 71" fill="none" xmlns="http://www.w3.org/2000/svg">
    <g clip-path="url(#clip0_8983_196461)">
        <path
            d="M11.9072 35.5262C11.9072 55.0309 32.2407 70.8996 57.2347 70.8996C82.2289 70.8996 102.564 55.0309 102.564 35.5262C102.564 16.0204 82.2289 0.153076 57.2347 0.153076C32.2407 0.153076 11.9072 16.0204 11.9072 35.5262Z"
            fill="#00AC4F"></path>
        <path
            d="M13.5557 35.5261C13.5557 54.1265 33.1506 69.2567 57.2349 69.2567C81.3181 69.2567 100.915 54.1265 100.915 35.5261C100.915 16.9275 81.3181 1.79517 57.2349 1.79517C33.1506 1.79517 13.5557 16.9275 13.5557 35.5261Z"
            fill="#FFFFFE"></path>
        <path
            d="M97.9891 35.5276C97.9891 52.4677 79.6963 66.1993 57.1291 66.1993C34.5638 66.1993 16.2676 52.4677 16.2676 35.5276C16.2676 18.5881 34.5638 4.85474 57.1291 4.85474C79.6963 4.85474 97.9891 18.5881 97.9891 35.5276Z"
            fill="#00AC4F"></path>
        <path fill-rule="evenodd" clip-rule="evenodd"
            d="M56.6535 3.72681V67.4677H57.8153V3.72681H56.6535ZM67.6507 5.68323C67.7818 5.82383 80.786 19.9291 80.786 35.526C80.786 51.1225 67.5661 65.4685 67.4327 65.6114L68.279 66.4138C68.4159 66.2671 81.9482 51.5917 81.9482 35.526C81.9482 19.4593 68.6312 5.02512 68.4962 4.88125L67.6507 5.68323ZM45.7481 66.3453C45.6124 66.1993 32.1436 51.5917 32.1436 35.526C32.1436 19.4595 45.773 4.6717 45.911 4.52417L46.7574 5.32538C46.6227 5.46964 33.3054 19.9283 33.3054 35.526C33.3054 51.1225 46.4617 65.4007 46.5944 65.5429L45.7481 66.3453Z"
            fill="#FFFFFE"></path>
        <path fill-rule="evenodd" clip-rule="evenodd"
            d="M57.454 13.1716C47.9223 13.1716 39.1046 11.0416 34.4424 7.61256L35.1705 6.60815C39.632 9.88947 48.1705 11.928 57.454 11.928C66.6636 11.928 75.1712 9.9122 79.6556 6.66767L80.3757 7.67766C75.692 11.0665 66.9092 13.1716 57.454 13.1716ZM35.5859 64.2032L34.9223 63.234C39.4495 60.0908 47.9819 58.1382 57.1905 58.1382C66.6204 58.1382 75.253 60.164 79.7198 63.4243L79.0341 64.3765C74.7566 61.2545 66.3868 59.315 57.1905 59.315C48.2064 59.315 39.928 61.1879 35.5859 64.2032Z"
            fill="#FFFFFE"></path>
        <path
            d="M111.708 26.6557C111.777 26.2647 111.806 25.8778 111.796 25.4986C111.76 24.1837 111.249 22.947 110.36 21.9069C109.248 20.6073 107.347 19.8038 105.649 19.6921C92.8639 18.8475 80.4314 18.3234 67.6613 18.1245C67.6621 18.1241 65.7763 18.0946 63.9151 18.0754C63.9166 18.0081 63.9284 17.9415 63.9277 17.8754C63.9158 16.2961 63.4328 14.7829 62.5494 13.6082C61.4981 12.198 59.9428 11.4596 58.283 11.4526C57.3158 11.448 56.3483 11.4467 55.3815 11.448C54.0331 11.4495 52.7485 12.5129 52.5248 14.0681C52.3351 15.3934 52.1454 16.7187 51.9553 18.0432C46.49 18.0719 41.1532 18.1611 35.6871 18.3094C35.7606 16.68 35.3311 15.1317 34.4526 13.9768C33.4316 12.6236 31.9443 12.0322 30.257 12.1175C29.2887 12.166 28.3208 12.2172 27.3521 12.271C25.9994 12.3478 24.7993 13.4048 24.5286 14.9007C24.298 16.1767 24.0708 17.4513 23.849 18.7239C19.2667 18.9197 14.6825 19.1568 10.0983 19.4342C6.97198 19.6362 3.54006 22.3016 3.03066 25.5791C1.79044 33.5694 0.831685 38.5266 0.209854 45.5449C0.0622371 47.2136 0.375062 49.2332 1.52656 50.5868C2.66085 51.9204 4.708 52.4893 6.39413 52.6457C39.1703 55.6892 69.819 55.8182 101.677 53.0039C104.767 52.7197 107.592 50.0691 108.28 46.9347C109.382 41.9094 109.457 40.9229 110.031 37.6185C110.087 37.2937 110.546 34.2276 110.87 32.2457L111.708 26.6557Z"
            fill="#FFFFFE"></path>
        <path
            d="M28.2427 51.2791C29.3574 40.5355 30.9189 29.7137 32.776 18.6977C32.9527 17.655 32.7615 16.6893 32.2352 15.9936C31.7266 15.3164 30.9663 14.9678 30.0875 15.0118C29.1161 15.0611 28.1444 15.1125 27.1726 15.1664C25.1679 26.0177 23.5109 36.721 22.359 47.2399C22.2481 48.2383 22.5089 49.1921 23.0898 49.9239C23.6524 50.6366 24.447 51.0626 25.3247 51.115C26.298 51.1724 27.2705 51.2267 28.2427 51.2791Z"
            fill="#F58220"></path>
        <path fill-rule="evenodd" clip-rule="evenodd"
            d="M27.1468 14.6912L30.0643 14.5363C31.1019 14.4843 32.0067 14.9 32.6109 15.705C33.2175 16.5062 33.4416 17.5979 33.2423 18.7774C31.2261 30.7376 29.7446 41.3851 28.7132 51.3283C28.6868 51.581 28.4696 51.7686 28.218 51.7543L25.297 51.5902C24.2854 51.5301 23.3703 51.0432 22.7205 50.2208C22.0601 49.3884 21.7648 48.3106 21.8891 47.1874C22.9802 37.23 24.5562 26.7277 26.7081 15.0795C26.7483 14.863 26.9288 14.7027 27.1468 14.6912ZM31.8583 16.2805C31.4415 15.7251 30.8372 15.4508 30.1114 15.487C30.1114 15.487 28.1369 15.592 27.5709 15.6218C25.4583 27.0985 23.9053 37.4644 22.8288 47.2926C22.8138 47.4247 22.8066 47.5564 22.8066 47.6862C22.8066 48.4116 23.0326 49.0887 23.4598 49.6273C23.9405 50.2359 24.6128 50.5956 25.3528 50.6396L27.8218 50.779C28.8532 40.9427 30.3209 30.4193 32.3103 18.6177C32.349 18.3895 32.3681 18.1668 32.3681 17.9517C32.3681 17.3026 32.1941 16.7243 31.8583 16.2805Z"
            fill="#C4451A"></path>
        <path
            d="M90.3391 21.8358C89.2763 21.7911 88.2147 21.7486 87.1527 21.7079C85.3928 21.6368 83.8393 23.1075 83.5915 25.0507C82.7616 31.5869 81.7769 38.1783 80.6766 44.8166C79.3423 44.8571 78.0073 44.894 76.6726 44.9279C77.7373 38.3326 78.7098 31.7755 79.5504 25.2652C79.6838 24.2308 79.4425 23.2551 78.8761 22.5209C78.327 21.8067 77.5365 21.3953 76.6542 21.3726C75.671 21.3476 74.6893 21.3241 73.7065 21.3025C72.6047 30.1417 71.3029 39.0444 69.9051 47.9926C69.7437 49.0122 69.951 49.9725 70.4757 50.6859C71.0061 51.3985 71.7855 51.7791 72.68 51.7494C76.0293 51.6404 79.381 51.4987 82.7349 51.3253C84.4558 51.2329 86.093 49.6436 86.4379 47.728C88.0139 38.9878 89.3414 30.3499 90.3391 21.8358Z"
            fill="#F58220"></path>
        <path fill-rule="evenodd" clip-rule="evenodd"
            d="M69.4386 47.9186C71.0395 37.6711 72.2468 29.1948 73.238 21.2431C73.2683 21.0009 73.4752 20.8208 73.7172 20.8266L76.6665 20.8967C77.6922 20.923 78.61 21.3965 79.2498 22.2289C79.7803 22.9166 80.0591 23.7816 80.0591 24.7119C80.0591 24.9141 80.0461 25.1194 80.0197 25.3268C79.243 31.3404 78.3267 37.6043 77.2291 44.436C77.5778 44.4264 78.1535 44.4104 78.7212 44.3947C79.3606 44.3769 79.99 44.3594 80.2736 44.3517C81.4064 37.4903 82.341 31.148 83.1231 24.99C83.4023 22.8024 85.181 21.1519 87.1707 21.2324L90.3591 21.3602C90.491 21.3654 90.6138 21.4257 90.6998 21.5267C90.7851 21.6276 90.8241 21.7597 90.8088 21.8914C89.8493 30.0821 88.572 38.561 86.9034 47.8131C86.5191 49.9448 84.6995 51.6966 82.7598 51.8006C79.4055 51.9744 76.0195 52.1173 72.6961 52.2251C71.6487 52.2598 70.7262 51.8149 70.0964 50.969C69.491 50.1458 69.2577 49.0627 69.4386 47.9186ZM70.3243 48.6651C70.3243 49.3246 70.506 49.927 70.854 50.4001C71.298 50.9964 71.9244 51.2983 72.6656 51.2737C75.9831 51.1658 79.3631 51.0233 82.7101 50.8496C84.2054 50.7699 85.6693 49.3307 85.9734 47.6428C87.6037 38.6008 88.8554 30.3048 89.8061 22.2909L87.1344 22.1834C85.628 22.1226 84.278 23.4085 84.0608 25.1109C83.2619 31.3986 82.3078 37.8695 81.1437 44.8948C81.1062 45.1197 80.9173 45.2862 80.6912 45.2923L76.6849 45.4036C76.5438 45.4071 76.4096 45.3478 76.3166 45.2411C76.2405 45.1536 76.2004 45.0423 76.2004 44.9287C76.2004 44.9025 76.2023 44.8771 76.2065 44.8513C77.3446 37.8033 78.285 31.3766 79.082 25.2042C79.1034 25.0381 79.1141 24.874 79.1141 24.713C79.1141 23.9937 78.9038 23.3319 78.503 22.8123C78.0399 22.2096 77.379 21.8674 76.6425 21.8485C76.6425 21.8485 74.7441 21.8032 74.1219 21.7886C73.139 29.6276 71.9466 37.9903 70.3721 48.0673C70.3396 48.2707 70.3243 48.4702 70.3243 48.6651Z"
            fill="#C4451A"></path>
        <path fill-rule="evenodd" clip-rule="evenodd"
            d="M48.1504 21.1432C49.0326 21.1349 49.8101 21.527 50.3417 22.241C50.8886 22.9808 51.11 23.9763 50.9555 25.043C49.8396 32.8448 48.7443 40.6355 47.7385 48.4015C47.4803 50.3941 45.9369 51.9318 44.2178 51.8906C40.8708 51.8147 37.5226 51.7057 34.1725 51.5647C33.28 51.5277 32.4749 51.0932 31.9078 50.356C31.3403 49.6164 31.0894 48.6672 31.2022 47.6773C32.0684 40.1539 33.1312 32.5646 34.3305 24.9207C34.6418 22.9409 36.2717 21.3445 38.0293 21.3034C41.4031 21.2293 44.7769 21.1759 48.1504 21.1432ZM37.7303 45.0741C39.1388 45.1065 40.5476 45.1342 41.9561 45.1577C42.0659 44.0171 44.0519 29.5816 44.3303 27.888C42.9149 27.8973 41.4995 27.9075 40.0841 27.9202C39.8685 29.0897 37.8836 43.4347 37.7303 45.0741Z"
            fill="#F58220"></path>
        <path fill-rule="evenodd" clip-rule="evenodd"
            d="M38.019 20.8274L48.1457 20.6674C49.1802 20.6576 50.0942 21.1152 50.7199 21.9555L50.721 21.9568C51.3459 22.8024 51.5952 23.9229 51.4228 25.1109C50.3665 32.5001 49.2456 40.4433 48.2073 48.4636C47.9174 50.6989 46.1601 52.4134 44.2071 52.3668C40.886 52.2913 37.5031 52.1815 34.153 52.0409C33.1219 51.9974 32.1923 51.5032 31.5341 50.6473C30.8909 49.8091 30.6059 48.7352 30.7325 47.6227C31.5544 40.4882 32.5785 33.0381 33.8635 24.8464C34.2103 22.6392 36.0353 20.8739 38.019 20.8274ZM34.192 51.0895C37.5363 51.2305 40.9132 51.3399 44.2289 51.415C45.7062 51.4504 47.0416 50.0995 47.27 48.3403C48.309 40.3147 49.4307 32.3676 50.4877 24.9743C50.5164 24.7744 50.5309 24.5776 50.5309 24.3853C50.5309 23.6766 50.3359 23.031 49.963 22.5262C49.5221 21.9347 48.88 21.6125 48.1549 21.6192L38.0404 21.7795C36.5248 21.8147 35.07 23.2573 34.797 24.9953C33.5143 33.1735 32.4917 40.6111 31.6714 47.7313C31.5731 48.5957 31.7899 49.4247 32.2814 50.0649C32.7659 50.6943 33.4443 51.0583 34.192 51.0895Z"
            fill="#C4451A"></path>
        <path fill-rule="evenodd" clip-rule="evenodd"
            d="M40.0803 27.4443L44.3276 27.4121C44.4672 27.411 44.5999 27.4722 44.6901 27.5789C44.7808 27.6856 44.8198 27.8274 44.7968 27.966C44.5249 29.6189 42.5313 44.118 42.4265 45.2039C42.4028 45.4516 42.1952 45.6384 41.9481 45.6334L37.7196 45.5502C37.5884 45.5479 37.4645 45.4901 37.3769 45.3911C37.2894 45.2921 37.2477 45.1616 37.2599 45.0294C37.4232 43.2845 39.408 28.9805 39.6199 27.8333C39.6612 27.609 39.8539 27.4458 40.0803 27.4443ZM41.537 44.6735C41.8418 42.2013 43.3417 31.2909 43.7784 28.3682C43.4689 28.3705 42.9479 28.3745 42.4038 28.3786C41.6323 28.3844 40.8143 28.3907 40.4865 28.393C40.1224 30.7503 38.5927 41.7949 38.2577 44.6084C38.9621 44.6226 40.9408 44.6619 41.537 44.6735Z"
            fill="#B24226"></path>
        <path fill-rule="evenodd" clip-rule="evenodd"
            d="M67.524 21.1896C68.4044 21.2027 69.1899 21.6114 69.7337 22.3308C70.2928 23.0769 70.5292 24.0653 70.3892 25.12C69.3712 32.8313 68.2327 40.581 67.0437 48.357C66.7397 50.3496 65.1484 51.9432 63.4309 51.9694C60.0846 52.0183 56.7387 52.0349 53.3929 52.0183C52.501 52.0141 51.7094 51.5988 51.1614 50.8593C50.6149 50.1185 50.3854 49.1459 50.5201 48.1209C50.5204 48.1172 50.521 48.1133 50.5216 48.1093C50.5222 48.1054 50.5227 48.1014 50.5231 48.0978C50.5237 48.0933 50.5237 48.0905 50.5237 48.0873C50.5237 48.084 50.5237 48.0802 50.5243 48.0739C51.5218 40.5336 52.5842 32.9774 53.6471 25.4173C54.1652 21.7319 54.6835 18.0456 55.1945 14.3597C56.1647 14.3581 57.1357 14.36 58.1067 14.3641C58.9809 14.3679 59.758 14.7718 60.2927 15.4964C60.8468 16.241 61.0732 17.2413 60.9317 18.3058C60.8074 19.2434 60.6824 20.1818 60.5566 21.1195C62.879 21.133 65.2012 21.1567 67.524 21.1896ZM57.1935 45.2766C58.6016 45.2742 60.0097 45.2685 61.4189 45.2584C61.6013 44.0851 63.673 29.5467 63.8829 27.8694C62.4672 27.8632 61.0526 27.8588 59.6368 27.8559C59.5342 28.6251 58.603 35.2472 57.9152 40.1386C57.5623 42.6482 57.2735 44.7022 57.1935 45.2766Z"
            fill="#F58220"></path>
        <path fill-rule="evenodd" clip-rule="evenodd"
            d="M53.1776 25.3623L54.7265 14.2938C54.7594 14.0586 54.9582 13.8832 55.1938 13.8835L58.1083 13.888C59.1348 13.8922 60.0453 14.3627 60.6706 15.2108C61.1788 15.8935 61.4458 16.7571 61.4458 17.6924C61.4458 17.9145 61.4305 18.1402 61.4007 18.3686L61.0962 20.6488C62.5131 20.6629 66.3614 20.7017 67.315 20.7113L67.531 20.7135C68.5574 20.7287 69.4734 21.2006 70.1097 22.0421L70.1109 22.0436C70.6291 22.7351 70.9014 23.6012 70.9014 24.5316C70.9014 24.7456 70.8872 24.963 70.8578 25.1826C69.9598 31.9829 68.8967 39.3699 67.5107 48.4292C67.1715 50.6518 65.3829 52.4153 63.4382 52.4449C60.1034 52.4938 56.7239 52.5108 53.3903 52.4942C52.3508 52.4892 51.4246 52.0093 50.7821 51.1433C50.1603 50.3001 49.901 49.205 50.0497 48.0733C50.0497 48.0733 50.0536 48.0417 50.0562 48.0109C51.0531 40.4738 52.1328 32.7938 53.177 25.3665L53.1776 25.3623ZM55.6049 14.8361C55.4986 15.5979 54.1135 25.4956 54.1135 25.4956C53.069 32.9224 51.9894 40.602 50.994 48.1291L50.9959 48.0941C50.9945 48.1163 50.99 48.1734 50.9886 48.1835C50.8704 49.0829 51.0663 49.9323 51.5397 50.5744C52.0001 51.1946 52.6587 51.5385 53.3949 51.5424C56.7224 51.5586 60.0966 51.5416 63.4241 51.4931C64.8961 51.4708 66.3099 50.0317 66.5769 48.2844C67.9609 39.2314 69.0236 31.8508 69.9208 25.0568C69.9445 24.8795 69.956 24.7044 69.956 24.5324C69.956 23.8084 69.7503 23.1424 69.3571 22.6181C68.9001 22.0145 68.2465 21.6761 67.5172 21.6654L60.554 21.5952C60.419 21.5939 60.2893 21.534 60.2002 21.4308C60.1256 21.3435 60.084 21.2322 60.084 21.1182C60.084 21.0974 60.0855 21.0766 60.0885 21.0556L60.4633 18.2425C60.4882 18.056 60.5008 17.8725 60.5008 17.6926C60.5008 16.963 60.2989 16.298 59.9134 15.7801C59.4686 15.1769 58.8261 14.8431 58.1045 14.8398L55.6049 14.8361Z"
            fill="#C4451A"></path>
        <path fill-rule="evenodd" clip-rule="evenodd"
            d="M57.4313 40.1847L59.1683 27.7924C59.2016 27.5569 59.402 27.3791 59.638 27.3799L63.8848 27.3932C64.0206 27.3936 64.1487 27.4525 64.2382 27.555C64.3273 27.6574 64.369 27.7936 64.3518 27.9288C64.1556 29.4969 62.0886 44.0303 61.8855 45.3323C61.8499 45.5634 61.6537 45.7333 61.422 45.7345L57.1938 45.7522C57.0566 45.7529 56.9265 45.6936 56.8363 45.5896C56.7464 45.4848 56.7062 45.3469 56.7254 45.2098L57.4313 40.1847ZM60.0472 28.3331C59.9389 29.1065 58.3671 40.3182 58.3671 40.3182L57.7377 44.7977C58.4099 44.7952 60.1126 44.7882 60.8346 44.7853L61.0124 44.7846C61.3784 42.3019 62.9605 31.1751 63.3437 28.3435L60.0472 28.3331Z"
            fill="#C4451A"></path>
        <path
            d="M95.9782 43.6879C96.0091 43.5546 96.0225 43.4179 96.0217 43.2788C96.0225 42.2577 95.2439 41.4603 94.2882 41.4903C92.8843 41.5389 91.4804 41.5836 90.0765 41.6267C89.7583 43.5234 89.4271 45.4248 89.0818 47.3323C88.9005 48.3215 89.0833 49.244 89.603 49.9131C90.1166 50.5818 90.8918 50.9023 91.7902 50.8561C95.4645 50.67 96.9763 50.6111 101.927 50.0664C103.663 49.8754 105.358 48.1366 105.835 46.3731C106.518 43.8512 107.05 41.4056 107.63 36.6233C107.773 35.4527 107.565 34.8135 107.014 34.1613C106.476 33.5292 105.692 33.1718 104.81 33.1716C104.811 33.1712 99.2682 33.1693 97.8949 33.1693C98.0785 31.9894 98.5852 29.2537 98.6942 28.4203C100.064 28.4509 101.435 28.4829 102.806 28.5174C102.75 28.7056 102.696 28.8941 102.64 29.0831C102.62 29.2115 102.613 29.3417 102.617 29.4775C102.665 30.4709 103.473 31.2833 104.428 31.2916C105.786 31.306 107.144 31.3211 108.502 31.3365C108.769 29.6786 109.019 28.0291 109.25 26.3886C109.37 25.4651 109.079 24.8358 108.532 24.1226C108.053 23.4973 107.059 22.7958 106.173 22.6843C104.666 22.4946 102.094 22.233 96.3097 22.0978C94.5402 22.0562 92.9902 23.4316 92.7508 25.3405C92.5764 26.8834 91.5706 32.1581 91.1156 36.4377C91.1909 37.5081 91.5622 38.0403 92.1018 38.7304C92.643 39.4176 93.331 39.5951 94.2266 39.5713C94.2266 39.5742 99.4556 39.5622 100.828 39.5158C100.627 40.683 100.151 43.2476 99.9891 44.0889C98.6223 44.1613 97.2555 44.2306 95.8887 44.2961C95.9181 44.0935 95.9487 43.8909 95.9782 43.6879Z"
            fill="#F58220"></path>
        <path fill-rule="evenodd" clip-rule="evenodd"
            d="M91.8196 28.1625C91.8196 28.1625 92.2644 25.2847 92.2652 25.2789C92.5333 23.1366 94.2768 21.5573 96.3208 21.6051C102.006 21.738 104.605 21.9903 106.234 22.1954C107.279 22.3269 108.376 23.1129 108.918 23.8211C109.433 24.4908 109.888 25.2729 109.735 26.458L108.985 31.4155C108.948 31.6582 108.74 31.8319 108.497 31.8292L104.424 31.7845C103.218 31.7743 102.188 30.7501 102.127 29.4938L102.156 29.0069C102.156 29.003 102.157 29.0012 102.157 28.9996C102.158 28.9983 102.158 28.9971 102.158 28.9951L99.1057 28.9233C99.0051 29.53 98.7447 31.0908 98.7447 31.0908C98.7447 31.0908 98.5799 32.0601 98.4747 32.6767L103.923 32.6782C104.381 32.6782 104.67 32.679 104.862 32.6967C104.853 32.6957 104.845 32.6917 104.838 32.6877C104.829 32.6831 104.821 32.6786 104.81 32.6786C105.833 32.679 106.748 33.0917 107.387 33.8419C108.063 34.6439 108.268 35.4401 108.116 36.6829C107.537 41.4465 107.015 43.891 106.307 46.5026C105.747 48.5704 103.847 50.3508 101.98 50.5565C97.3024 51.0713 95.6669 51.1539 92.4333 51.3171L92.4082 51.3184L91.8151 51.3484C90.7427 51.4039 89.8195 51.0014 89.2172 50.2167C88.6114 49.4363 88.3919 48.3801 88.6 47.2438L89.5935 41.5443C89.6337 41.3148 89.8299 41.1416 90.0612 41.1341L94.2722 40.9979C94.8523 40.9793 95.4023 41.1948 95.8222 41.6048C96.2665 42.0386 96.5113 42.6321 96.5113 43.2747C96.5113 43.275 96.4623 43.7261 96.457 43.7739H96.4593L96.4623 43.7592C96.4623 43.7592 96.4601 43.7727 96.4601 43.7739C96.8101 43.7563 97.3729 43.7279 97.9335 43.6996C98.6119 43.6653 99.287 43.6313 99.5776 43.6167C99.6437 43.2573 99.8433 42.1692 100.015 41.2351C100.105 40.7427 100.188 40.2931 100.238 40.0155C99.3803 40.0259 97.0165 40.0552 97.0165 40.0552L96.9919 40.0553C95.1433 40.0656 94.451 40.0695 94.1548 40.0351C94.1678 40.0373 94.1798 40.0433 94.1916 40.0493C94.2068 40.0569 94.2219 40.0644 94.2393 40.064C93.4584 40.085 92.466 39.987 91.7172 39.0353C91.132 38.2867 90.711 37.6646 90.6272 36.4728C90.6249 36.4437 90.6257 36.4143 90.6288 36.3854C90.9196 33.647 91.436 30.5003 91.8145 28.1937L91.8196 28.1625ZM93.2369 25.3966L92.7849 28.3235L92.7842 28.328C92.4098 30.6103 91.8986 33.7271 91.6085 36.4356C91.6797 37.3449 91.9883 37.7888 92.4851 38.4242C92.8736 38.918 93.3582 39.1014 94.2378 39.0787C94.4293 39.0818 99.4755 39.0687 100.811 39.0232C100.96 39.0182 101.102 39.0787 101.199 39.1915C101.297 39.3044 101.337 39.4535 101.31 39.6004L100.469 44.183C100.428 44.4071 100.241 44.5697 100.014 44.5813L95.9116 44.7885C95.7652 44.7962 95.6237 44.7369 95.5254 44.6279C95.4263 44.5185 95.3824 44.3709 95.4038 44.2246L95.4937 43.6167C95.4933 43.62 95.4954 43.6081 95.4975 43.5962C95.4996 43.5842 95.5017 43.5722 95.5013 43.5755C95.5013 43.5755 95.5319 43.2816 95.5319 43.2785C95.5323 42.9022 95.3938 42.559 95.1411 42.3124C94.9135 42.0898 94.616 41.9735 94.3043 41.9835C94.3043 41.9835 91.1427 42.0855 90.4896 42.1063C90.2655 43.3902 89.5629 47.4209 89.5629 47.4217C89.522 47.642 89.5021 47.8574 89.5021 48.065C89.5021 48.6628 89.6685 49.1979 89.9893 49.6116C90.3974 50.1428 91.0112 50.4028 91.7653 50.3639L92.3593 50.3338C95.5904 50.1713 97.2127 50.0896 101.874 49.5761C103.319 49.4174 104.917 47.8913 105.363 46.243C106.058 43.6745 106.573 41.268 107.144 36.5629C107.277 35.4719 107.071 34.9894 106.642 34.4823C106.194 33.9551 105.543 33.6649 104.807 33.6645L97.8946 33.6622C97.7504 33.6622 97.6131 33.6015 97.5198 33.4906C97.4268 33.3795 97.3867 33.2364 97.4108 33.0931L97.781 30.9198L98.2085 28.3563C98.2487 28.1145 98.4613 27.9219 98.7045 27.9279L102.818 28.0246C102.97 28.0283 103.111 28.1034 103.201 28.2272C103.263 28.3123 103.294 28.4144 103.294 28.5175C103.294 28.5643 103.288 28.6116 103.275 28.6577C103.275 28.6577 103.14 29.1186 103.122 29.1781C103.121 29.1947 103.119 29.2325 103.116 29.2749C103.111 29.3558 103.106 29.4534 103.105 29.4537C103.141 30.1892 103.736 30.7928 104.433 30.7988L108.082 30.8389C108.262 29.6513 108.766 26.3207 108.765 26.3251C108.866 25.5426 108.614 25.0355 108.144 24.4239C107.738 23.8945 106.846 23.2658 106.113 23.1736C104.506 22.9714 101.94 22.7227 96.2979 22.5906C94.7575 22.5546 93.4415 23.7633 93.2369 25.3966Z"
            fill="#C4451A"></path>
        <path
            d="M21.2319 35.3882C21.4874 33.6169 20.3477 33.2971 19.3798 33.2994C17.0963 33.3012 15.0396 33.3035 12.7576 33.3056C12.5396 34.6652 12.3427 35.8913 12.1438 37.2416C11.9928 38.3652 12.8226 39.3923 13.7894 39.4207C13.986 39.4284 14.4281 39.4361 14.6254 39.4438C14.4744 40.4932 14.2659 41.4249 13.7355 44.3955C12.3048 44.3231 10.5655 44.2152 9.13449 44.1359C9.20639 42.6506 11.1247 29.6235 11.4046 28.5028C12.8379 28.47 14.5738 28.47 16.0083 28.4405C16.0075 28.4405 15.8504 29.3067 15.8549 29.4471C15.8733 30.4777 16.6806 31.3068 17.6474 31.301C19.0429 31.2891 20.4403 31.2789 21.8365 31.2685C22.1329 29.3827 22.4442 27.4899 22.7681 25.5931C22.9364 24.5579 22.7364 23.5974 22.1964 22.9058C21.6728 22.2338 20.8915 21.9237 19.9928 21.9233C17.5024 21.9222 13.1519 22.0936 9.71655 22.4316C7.93787 22.6069 5.74922 24.2284 5.4081 26.0459C3.97207 33.6906 2.70508 43.7399 2.70508 46.1043C2.70508 46.9987 2.90241 48.1736 3.5013 48.8762C4.09407 49.5734 5.07882 49.8176 5.98212 49.9682C8.99529 50.4705 14.2457 50.8622 16.2205 50.8403C18.2822 50.8172 19.2131 49.7494 19.5706 47.7005C20.2533 43.79 20.8043 38.7997 21.2319 35.3882Z"
            fill="#F58220"></path>
        <path fill-rule="evenodd" clip-rule="evenodd"
            d="M4.93018 25.955C5.31796 23.8882 7.75213 22.1327 9.66925 21.9439C13.092 21.6073 17.4536 21.4324 19.9933 21.4334C21.089 21.4337 21.9831 21.8384 22.5789 22.6028C23.2027 23.4025 23.4402 24.4918 23.2474 25.6763L22.3174 31.3451C22.2787 31.5803 22.0772 31.7567 21.8405 31.7584L17.6506 31.7908C16.4153 31.7985 15.3919 30.7509 15.3686 29.4628V29.4626C15.3686 29.4549 15.3812 29.2157 15.4164 28.9382C14.7835 28.9467 13.8286 28.9592 13.8286 28.9592C13.8286 28.9592 12.3501 28.9796 11.8036 28.9873C11.4089 31.1477 9.9358 41.097 9.66389 43.6752C10.171 43.7044 10.8984 43.746 10.8984 43.746C10.8984 43.746 12.7184 43.8481 13.3348 43.8824C13.4484 43.2642 13.7834 41.4372 13.7834 41.4372L14.0492 39.9179C13.9806 39.916 13.9028 39.9139 13.8477 39.9124C13.8036 39.9112 13.774 39.9104 13.7754 39.9104C13.1995 39.8937 12.6354 39.6071 12.2289 39.124C11.7745 38.5844 11.568 37.8741 11.6629 37.1697L12.2774 33.2276C12.3153 32.9903 12.5184 32.816 12.757 32.8158L19.3788 32.8095C20.2457 32.8073 20.8905 33.0446 21.2951 33.5148C21.6929 33.9766 21.8328 34.6301 21.7131 35.4587C21.7135 35.4571 21.7137 35.4557 21.7139 35.4543C21.7141 35.4528 21.7143 35.4513 21.7147 35.4494L21.4366 37.7182C21.0618 40.812 20.5949 44.6621 20.0499 47.7852C19.6319 50.1789 18.417 51.306 16.226 51.3302C14.1379 51.3534 8.85888 50.9443 5.90308 50.4516C4.92176 50.2879 3.82534 50.0109 3.13237 49.1959C2.30785 48.2282 2.21875 46.7117 2.21875 46.1042C2.21875 43.6081 3.53392 33.3886 4.93018 25.955ZM3.87085 48.5576C4.36151 49.1342 5.25372 49.3499 6.06179 49.4847C8.97323 49.9701 14.1647 50.373 16.2157 50.3503C17.945 50.3306 18.7516 49.5641 19.0916 47.6154C19.6323 44.518 20.0974 40.682 20.471 37.599C20.471 37.599 20.7498 35.3211 20.7506 35.3177C20.8278 34.7836 20.7636 34.3932 20.5601 34.1569C20.349 33.9115 19.952 33.7879 19.3803 33.7892L13.1735 33.7952C13.0293 34.7193 12.6254 37.3121 12.6262 37.3074C12.5688 37.731 12.6947 38.162 12.9708 38.4896C13.1995 38.7614 13.5027 38.922 13.8087 38.9309L14.6447 38.954C14.7862 38.9582 14.917 39.0168 15.0068 39.1271C15.0959 39.2373 15.1319 39.3736 15.107 39.5142L14.7395 41.6182L14.2144 44.4825C14.1697 44.7248 13.9555 44.8986 13.7112 44.8851L10.8422 44.7244L9.10785 44.6251C8.8413 44.6093 8.63593 44.3805 8.64893 44.112C8.7258 42.5173 10.6705 29.4338 10.9332 28.3831C10.9867 28.168 11.1734 28.016 11.3936 28.0129L13.819 27.9794L15.9985 27.9505C16.1419 27.9486 16.2792 28.0205 16.3729 28.1297C16.4497 28.2194 16.4914 28.34 16.4914 28.459C16.4914 28.4852 16.4895 28.5114 16.4853 28.537C16.4853 28.537 16.3427 29.4382 16.3411 29.4384C16.3549 30.1997 16.9396 30.8153 17.6437 30.811L21.4236 30.7816C21.6359 29.489 22.2879 25.514 22.2879 25.514C22.3227 25.3 22.3399 25.091 22.3399 24.8888C22.3399 24.2343 22.1602 23.6519 21.8137 23.2082C21.403 22.681 20.7903 22.4135 19.993 22.4133C17.477 22.4121 13.1551 22.5857 9.7641 22.9193C8.22137 23.0712 6.19144 24.5097 5.88626 26.137C4.39899 34.054 3.19165 43.8832 3.19165 46.1042C3.19165 46.9051 3.36987 47.9701 3.87085 48.5576Z"
            fill="#C4451A"></path>
        <path d="M22.4424 18.9188H24.1381L24.3985 16.9214L22.4424 18.9188Z" fill="#FFFFFE"></path>
    </g>
    <defs>
        <clipPath id="clip0_8983_196461">
            <rect width="112" height="71" fill="white"></rect>
        </clipPath>
    </defs>
</svg>