<svg width="139.994" height="139.994" style="shape-rendering:geometricPrecision;text-rendering:geometricPrecision;image-rendering:optimizeQuality;fill-rule:evenodd;clip-rule:evenodd" viewBox="0 0 140 140" xmlns="http://www.w3.org/2000/svg">
    <g id="Vrstva_x0020_1">
        <path d="M3727 1965c-42-771-723-1573-1856-1573-808 0-1452 589-1452 1305 0 667 595 1195 1313 1195 670 0 1198-491 1198-1081 0-551-494-982-1084-982-552 0-981 407-981 889 0 453 409 800 888 800 452 0 796-335 796-724 0-369-336-646-720-646-367 0-638 274-638 585 0 297 273 513 577 513 293 0 502-222 502-465 0-235-219-400-454-400-230 0-387 177-387 362 0 184 174 304 350 304 177 0 288-139 288-275 0-138-134-221-261-221-131 0-203 106-203 200 0 101 101 150 184 150 92 0 132-64 131-122-1-46-66-86-113-86 60 0 158 10 155 122-1 74-96 158-214 158-106 0-235-64-235-192 0-120 93-255 260-255 161 0 332 105 332 282 0 174-141 351-367 351-225 0-446-154-446-388 0-236 199-462 493-462 300 0 580 210 580 511 0 310-267 593-641 593-388 0-736-276-736-655 0-397 346-746 814-746 491 0 918 353 918 824 0 497-438 925-1015 925-612 0-1133-444-1133-1022 0-615 547-1135 1252-1135 752 0 1383 551 1383 1254 0 753-673 1380-1529 1380C759 3238 0 2563 0 1713 0 799 822 46 1853 46c1457 0 1986 867 1874 1919z" style="fill:#ffed00" transform="translate(1 10.626) scale(.03531)"/>
        <path d="M3894 2044c-43-771-724-1573-1857-1573-808 0-1495 589-1495 1305 0 667 641 1232 1360 1232 670 0 1235-534 1235-1124 0-551-535-1013-1124-1013-553 0-1026 447-1026 929 0 453 456 841 935 841 453 0 827-379 827-768 0-369-372-680-757-680-366 0-668 308-668 618 0 298 306 551 610 551 293 0 502-259 502-502 0-235-218-400-454-400-230 0-386 177-386 362 0 184 173 304 349 304 177 0 288-139 288-275 0-138-142-202-268-202-131 0-196 87-196 181 0 100 101 150 184 150 93 0 132-64 131-122 0-46-66-86-113-86 60 0 158 10 156 122-2 74-97 158-214 158-107 0-235-64-235-192 0-120 94-278 262-278 161 0 344 111 344 288 0 174-156 368-382 368-225 0-446-154-446-388 0-236 199-462 493-462 301 0 580 210 580 511 0 310-267 593-641 593-388 0-736-276-736-656 0-396 346-745 814-745 491 0 919 353 919 824 0 497-439 925-1016 925-611 0-1133-444-1133-1022 0-615 547-1135 1252-1135 753 0 1384 551 1384 1254 0 753-674 1380-1529 1380-917 0-1677-675-1677-1525 0-914 822-1667 1853-1667 1458 0 1986 867 1875 1919z" style="fill:#e31e24" transform="translate(1 10.626) scale(.03531)"/>
    </g>
</svg>