<svg width="2800" height="2800" xmlns="http://www.w3.org/2000/svg">
   <defs>
     <linearGradient x1="0" y1="0" x2="1" y2="0" gradientUnits="userSpaceOnUse" gradientTransform="scale(-5195.92) rotate(69.823 .9 -1.582)" spreadMethod="pad" id="b">
       <stop style="stop-opacity:1;stop-color:#3c6616" offset="0"/>
       <stop style="stop-opacity:1;stop-color:#54851c" offset=".5"/>
       <stop style="stop-opacity:1;stop-color:#85c152" offset="1"/>
     </linearGradient>
     <linearGradient x1="0" y1="0" x2="1" y2="0" gradientUnits="userSpaceOnUse" gradientTransform="scale(-11378.57) rotate(55.997 -.01 -1.589)" spreadMethod="pad" id="d">
       <stop style="stop-opacity:1;stop-color:#3c6616" offset="0"/>
       <stop style="stop-opacity:1;stop-color:#54851c" offset=".5"/>
       <stop style="stop-opacity:1;stop-color:#85c152" offset="1"/>
     </linearGradient>
     <linearGradient x1="0" y1="0" x2="1" y2="0" gradientUnits="userSpaceOnUse" gradientTransform="scale(13346.2) rotate(-31.733 2.014 .26)" spreadMethod="pad" id="f">
       <stop style="stop-opacity:1;stop-color:#3c6616" offset="0"/>
       <stop style="stop-opacity:1;stop-color:#54851c" offset=".5"/>
       <stop style="stop-opacity:1;stop-color:#85c152" offset="1"/>
     </linearGradient>
     <linearGradient x1="0" y1="0" x2="1" y2="0" gradientUnits="userSpaceOnUse" gradientTransform="rotate(-5.899 144057.8 -43310.634) scale(12567.15)" spreadMethod="pad" id="h">
       <stop style="stop-opacity:1;stop-color:#3c6616" offset="0"/>
       <stop style="stop-opacity:1;stop-color:#54851c" offset=".5"/>
       <stop style="stop-opacity:1;stop-color:#85c152" offset="1"/>
     </linearGradient>
     <linearGradient x1="0" y1="0" x2="1" y2="0" gradientUnits="userSpaceOnUse" gradientTransform="rotate(-57.023 19935.407 -4934.29) scale(14070.7)" spreadMethod="pad" id="j">
       <stop style="stop-opacity:1;stop-color:#3c6616" offset="0"/>
       <stop style="stop-opacity:1;stop-color:#54851c" offset=".5"/>
       <stop style="stop-opacity:1;stop-color:#85c152" offset="1"/>
     </linearGradient>
     <linearGradient x1="0" y1="0" x2="1" y2="0" gradientUnits="userSpaceOnUse" gradientTransform="rotate(-142.43 6589.977 881.272) scale(5176.89)" spreadMethod="pad" id="l">
       <stop style="stop-opacity:1;stop-color:#3c6616" offset="0"/>
       <stop style="stop-opacity:1;stop-color:#54851c" offset=".5"/>
       <stop style="stop-opacity:1;stop-color:#85c152" offset="1"/>
     </linearGradient>
     <clipPath clipPathUnits="userSpaceOnUse" id="a">
       <path d="M364.742 9688.2c1545.598-600.6 2538.988-671.5 3468.948-881s1729.1-594.6 2489.04-844.4c759.96-249.8 1841.5-223.7 1841.5-223.7l-343.14-113.4c-1335.27-760.5-2547.26-1363.2-3842.25-968.3-1294.98 394.9-2089.62 1190.5-2940.46 2138.2-433.942 482.7-686.618 718.8-673.638 892.6Z"/>
     </clipPath>
     <clipPath clipPathUnits="userSpaceOnUse" id="c">
       <path d="M8164.18 7739.1s1519.9-80.1 2624.42-421.6c1105.5-340.4 2209.9-648.1 4371.9-887.3 2162.1-239.2 3872.9-321.4 5475.7-168 13.8-175-95.1-332.3-394.3-474.2-808.5-384.7-1576-1255.4-2824.2-1525.9-1248.2-270.4-2323-91.1-2944.6-418.6-622.6-327.6-1549.8-1018.6-1954.7-1609.1-403.9-590.4-899.2-760.2-1144-1126.8-36.1-55.9-96.9-91-163.2-94.5-94 535.7-733.7 2105.6-1280.24 3165.5-546.55 1059.9-1187.55 1860.3-1766.78 3560.5z"/>
     </clipPath>
     <clipPath clipPathUnits="userSpaceOnUse" id="e">
       <path d="M3435.07 19986.6c1848-2695 2276.4-4066.5 2885.02-6278.6 608.62-2212.1 782-2822.4 1128.5-4042.3s715.64-1926.6 715.64-1926.6-1081.54-26.1-1841.5 223.7c-759.94 249.9-1559.03 634.9-2489.04 844.4-930.01 209.6-1923.35 280.7-3468.948 881 9.071 167.5 264.098 278.2 834.748 497.4 1165.67 447.3 2326.8 1843.5 2240.28 3764.5-86.52 1920.9-167.07 2841.7-190.21 4379.8-15.88 1082.9-284.35 1687.9 185.51 1656.7z"/>
     </clipPath>
     <clipPath clipPathUnits="userSpaceOnUse" id="g">
       <path d="M10570.7 16356.3c1205.4 807.7 2481 1836.1 4358.6 2479.5 1877.6 642.2 2615.8 819.5 3794.4 856.8 327 10.3 523.4-38.8 631.6-147-1831.8-1635-2898-2797.2-4000.5-4422.7-1102.5-1625.3-2673.8-3034.3-4039.2-4462.7C9950.23 9231.9 9102.84 8486.9 8164.23 7739c0 0-369.18 706.4-715.64 1926.6-346.46 1220.1-519.71 1830.2-1128.5 4042.3-608.79 2212.1-1037.02 3583.6-2885.02 6278.7 197.36-12.2 524.5-137.5 1056.63-386.1 1796.43-840.7 2840.84-1423.2 3770.14-2419.7 929.28-996.5 1103.34-1632.1 2308.86-824.5z"/>
     </clipPath>
     <clipPath clipPathUnits="userSpaceOnUse" id="i">
       <path d="M19355 19545.5c282.9-281.4-32.9-965.4-202.9-2045-234.7-1495.2-824-3129.6-1806-4520.1-981.9-1390.5-1382-1711-1710.7-2670.4-328.6-959.4 665-748.3 1890.4-1376.4 1225.4-628 1695.9-972.1 2319.7-1619.2 394.8-408.1 769.8-755.3 790.5-1052.2-1602.8-153.4-3313.8-71.4-5475.7 168-2161.8 239.4-3266.5 546.9-4371.9 887.3-1104.62 341.5-2624.43 421.6-2624.43 421.6C9102.59 8487 9949.98 9232 11315.4 10660.3c1365.3 1428.3 2936.5 2837.6 4039.1 4462.7 1102.7 1625.2 2169 2787.5 4000.5 4422.5z"/>
     </clipPath>
     <clipPath clipPathUnits="userSpaceOnUse" id="k">
       <path d="M8164.18 7739.1C8743.41 6039 9384.33 5238.5 9930.91 4178.6c546.59-1059.9 1186.29-2629.8 1280.19-3165.4-349-28.501-1029.7 602.4-1565.24 1219.4-638.9 736.7-1383.98 1585.1-1437.2 3264.1-53.21 1677.8-44.48 2242.4-44.48 2242.4z"/>
     </clipPath>
   </defs>
   <path d="M21000 0H0v21000h21000V0" style="fill:#fff;fill-opacity:1;fill-rule:nonzero;stroke:none" transform="matrix(.13333 0 0 -.13333 0 2800)"/>
   <g clip-path="url(#a)" transform="matrix(.13333 0 0 -.13333 0 2800)">
     <path d="M364.742 9688.2c1545.598-600.6 2538.988-671.5 3468.948-881s1729.1-594.6 2489.04-844.4c759.96-249.8 1841.5-223.7 1841.5-223.7l-343.14-113.4c-1335.27-760.5-2547.26-1363.2-3842.25-968.3-1294.98 394.9-2089.62 1190.5-2940.46 2138.2-433.942 482.7-686.618 718.8-673.638 892.6" style="fill:url(#b);fill-opacity:1;fill-rule:nonzero;stroke:none"/>
   </g>
   <g clip-path="url(#c)" transform="matrix(.13333 0 0 -.13333 0 2800)">
     <path d="M8164.18 7739.1s1519.9-80.1 2624.42-421.6c1105.5-340.4 2209.9-648.1 4371.9-887.3 2162.1-239.2 3872.9-321.4 5475.7-168 13.8-175-95.1-332.3-394.3-474.2-808.5-384.7-1576-1255.4-2824.2-1525.9-1248.2-270.4-2323-91.1-2944.6-418.6-622.6-327.6-1549.8-1018.6-1954.7-1609.1-403.9-590.4-899.2-760.2-1144-1126.8-36.1-55.9-96.9-91-163.2-94.5-94 535.7-733.7 2105.6-1280.24 3165.5-546.55 1059.9-1187.55 1860.3-1766.78 3560.5" style="fill:url(#d);fill-opacity:1;fill-rule:nonzero;stroke:none"/>
   </g>
   <g clip-path="url(#e)" transform="matrix(.13333 0 0 -.13333 0 2800)">
     <path d="M3435.07 19986.6c1848-2695 2276.4-4066.5 2885.02-6278.6 608.62-2212.1 782-2822.4 1128.5-4042.3s715.64-1926.6 715.64-1926.6-1081.54-26.1-1841.5 223.7c-759.94 249.9-1559.03 634.9-2489.04 844.4-930.01 209.6-1923.35 280.7-3468.948 881 9.071 167.5 264.098 278.2 834.748 497.4 1165.67 447.3 2326.8 1843.5 2240.28 3764.5-86.52 1920.9-167.07 2841.7-190.21 4379.8-15.88 1082.9-284.35 1687.9 185.51 1656.7" style="fill:url(#f);fill-opacity:1;fill-rule:nonzero;stroke:none"/>
   </g>
   <g clip-path="url(#g)" transform="matrix(.13333 0 0 -.13333 0 2800)">
     <path d="M10570.7 16356.3c1205.4 807.7 2481 1836.1 4358.6 2479.5 1877.6 642.2 2615.8 819.5 3794.4 856.8 327 10.3 523.4-38.8 631.6-147-1831.8-1635-2898-2797.2-4000.5-4422.7-1102.5-1625.3-2673.8-3034.3-4039.2-4462.7C9950.23 9231.9 9102.84 8486.9 8164.23 7739c0 0-369.18 706.4-715.64 1926.6-346.46 1220.1-519.71 1830.2-1128.5 4042.3-608.79 2212.1-1037.02 3583.6-2885.02 6278.7 197.36-12.2 524.5-137.5 1056.63-386.1 1796.43-840.7 2840.84-1423.2 3770.14-2419.7 929.28-996.5 1103.34-1632.1 2308.86-824.5" style="fill:url(#h);fill-opacity:1;fill-rule:nonzero;stroke:none"/>
   </g>
   <g clip-path="url(#i)" transform="matrix(.13333 0 0 -.13333 0 2800)">
     <path d="M19355 19545.5c282.9-281.4-32.9-965.4-202.9-2045-234.7-1495.2-824-3129.6-1806-4520.1-981.9-1390.5-1382-1711-1710.7-2670.4-328.6-959.4 665-748.3 1890.4-1376.4 1225.4-628 1695.9-972.1 2319.7-1619.2 394.8-408.1 769.8-755.3 790.5-1052.2-1602.8-153.4-3313.8-71.4-5475.7 168-2161.8 239.4-3266.5 546.9-4371.9 887.3-1104.62 341.5-2624.43 421.6-2624.43 421.6C9102.59 8487 9949.98 9232 11315.4 10660.3c1365.3 1428.3 2936.5 2837.6 4039.1 4462.7 1102.7 1625.2 2169 2787.5 4000.5 4422.5" style="fill:url(#j);fill-opacity:1;fill-rule:nonzero;stroke:none"/>
   </g>
   <g clip-path="url(#k)" transform="matrix(.13333 0 0 -.13333 0 2800)">
     <path d="M8164.18 7739.1C8743.41 6039 9384.33 5238.5 9930.91 4178.6c546.59-1059.9 1186.29-2629.8 1280.19-3165.4-349-28.501-1029.7 602.4-1565.24 1219.4-638.9 736.7-1383.98 1585.1-1437.2 3264.1-53.21 1677.8-44.48 2242.4-44.48 2242.4" style="fill:url(#l);fill-opacity:1;fill-rule:nonzero;stroke:none"/>
   </g>
   <path d="M8147.89 7962.2c13.06-24.2 26.16-48.5 40.24-72.6 504.41 398.7 999.26 808.3 1499.39 1212l792.18 642.6 396 321.4c127.9 109.7 255.7 220.4 377.2 337.1 488.2 470.6 948.5 969.3 1378.7 1493.4 435.9 520.8 857.1 1055.2 1270.8 1594.7l1237 1626.3c417 538.6 848 1065.9 1292.9 1582 446.4 514.8 910.6 1014.8 1396.2 1491.9 482.5 481.1 999.9 925.8 1548 1330.5-542.5-411.1-1053.9-861.7-1530-1348.2-479.1-483-936.1-987.9-1375.2-1507.8-439-519.8-861.2-1052.2-1270.8-1595.6l-1216-1641.1c-407.4-545.4-822.2-1085.9-1253.8-1614.6-427.4-533.6-885.4-1042.1-1371.6-1522.9-122.4-119.8-250.1-234.6-379.9-347.5l-392.8-327.6-784.59-653.5c-459.86-380.8-916.49-765.7-1378.57-1142.4 444.45-38.2 883.3-95.1 1322.79-172.5 259.97-45.1 520.27-100.4 776.97-169.2 258.7-68.8 506.6-154.2 758.3-228.4 1004-304 2030.6-527.7 3070.2-669 1039.7-143.5 2086.6-257 3135.3-327.3 1048.7-68.4 2102.7-82.1 3150.4 8.4-1046.1-108.1-2102.7-110.8-3153.9-60.1-525 25.2-1050.6 65.2-1574.3 112.2-524.7 47-1048.5 99.1-1570.8 165.7-1048.3 125-2085.1 333.1-3100.6 622-253.6 71-505.5 152.2-755.8 215.1-252.3 62.8-508.17 113.2-766.09 154.2-465.03 73.5-936.6 125.2-1405.32 155.4l97.44-290.3c24.9-73.1 47.67-144.2 77.49-210.9 28.85-68.9 61.82-138.6 93.78-207.4 132.85-274.8 274.89-548.3 415.8-822.9l842.15-1645.6c278.05-551.3 548.05-1107 780.65-1679.3 231.4-572 424.1-1158.8 576.9-1756.6-169.2 592.2-377.8 1172.3-624.5 1736.6-246.5 563.3-530.7 1109.3-823.73 1651.1l-887.55 1621.6c-148.09 270.3-297.19 539.5-440.37 816-35.03 68.7-70.06 138.4-103.11 211.2-35.15 72.7-61.15 147.8-88.2 219.8l-81.98 223.1-53.85 145c-49.26.5-97.52 1-147 3.5-267.07 7-533.63 27.4-798.67 61-340.64 40.4-675.43 120.4-997.58 238.2-637.35 233.2-1249.37 510.3-1891.56 703.3-638.39 197.5-1309.93 285.6-1966.35 440.4-657.76 149.3-1302.373 351.5-1927.509 604.7 630.203-236.5 1278.329-422.2 1938.179-555.2 657.89-137.1 1330.09-208.2 1984.29-391.6 654.06-178.3 1279.02-442.6 1912.68-656.4a4223.118 4223.118 0 0 1 968.85-205.3c271.75-27.9 544.78-41.5 817.95-40.7-5.5 11.1-10.92 21-16.38 31.3-31.79 64.6-60.52 129.4-88.2 194.2-54.6 130.6-102.69 262.4-148.97 394.4-91.44 263.8-170.69 530.1-243.6 797.6-146.29 537-274.1 1072.6-415.21 1607.8-276.32 1069.5-577.59 2131-913.59 3183.2-167.49 526.1-343.14 1049.9-526.93 1571.4-89.33 260.8-186.77 519.4-284.17 777-102.53 256.2-205.04 512.6-320.71 763.4-224.95 504.2-479.68 994.5-762.85 1468.5-141.92 236.5-291.86 468.8-452.89 693.5-158.04 226.6-330.41 442.8-516.05 647.4a6816.02 6816.02 0 0 0 527.1-639.9c163.8-222.6 318.03-452.6 463.97-688 290.93-471.1 554.08-958.8 788.09-1460.6 118.73-249.6 225.29-504.8 332.89-760 101.56-258.3 203.08-515.7 296.44-775.4 190.89-519.2 376.7-1040.7 552.38-1565.5 353.35-1048.6 672.01-2108.4 964.53-3175.5 149.27-532.9 286.36-1070.2 438.49-1597.8 77.11-264.4 159.3-526.4 253.59-783 47.17-128.8 95.3-255.5 149.52-380a5053.58 5053.58 0 0 1 85.85-181.9" style="fill:#8cc63f;fill-opacity:1;fill-rule:nonzero;stroke:none" transform="matrix(.13333 0 0 -.13333 0 2800)"/>
   <path d="M7944.65 7641.8c49.31-2.5 97.57-3.1 147-3.6l53.84-145c-85.97-136-169.59-282.3-250.28-422.4-115.58-205.8-228.7-413.2-339.36-622.2-222.63-412.4-421.89-836.9-596.81-1271.6-173.97-434.4-321.94-880.2-460.53-1329.9-96.61-315.9-187.11-634.8-276.49-954.7-33.6-139.5-43.47-279.4-61.36-329.2-23.8-69.9-64.43-132.8-118.32-183.3-68.88-66.2-170.04-86.3-258.97-51.3-86.14 31.1-202.73 181.3-187.32 310.1 148.73 453 301.65 905.2 464.9 1354.6 165.27 450.5 339.82 898.2 542.39 1336.6 202.59 436.4 429.57 861.2 679.85 1272.1 122.77 205 247.8 409 375.65 610.1 94.75 145.6 184.68 287 285.81 429.7" style="fill:#af8739;fill-opacity:1;fill-rule:nonzero;stroke:none" transform="matrix(.13333 0 0 -.13333 0 2800)"/>
 </svg>